<svg width="114" height="98" viewBox="0 0 114 98" fill="none" xmlns="http://www.w3.org/2000/svg">
<path d="M43.3277 5.76436C40.1394 8.9527 29.0752 19.9324 18.7711 30.1943L0 48.8598L1.87922 50.739C2.89274 51.7736 13.9569 62.7745 26.4569 75.19L49.1554 97.7618L52.7872 93.9823L56.4189 90.2238L38.4291 72.424C28.5262 62.6478 20.397 54.5608 20.3547 54.4764C20.3125 54.3708 41.174 54.2863 66.8497 54.2863H113.429V48.7965V43.3066H66.8286H20.2069L32.9814 30.701C40.0127 23.7753 48.1419 15.7095 51.0769 12.8167L56.3978 7.51689L52.7661 3.75845L49.1343 -8.60542e-07L43.3277 5.76436Z" fill="#969696"/>
</svg>
