<svg width="114" height="98" viewBox="0 0 114 98" fill="none" xmlns="http://www.w3.org/2000/svg">
<path d="M70.1014 91.9975C73.2897 88.8091 84.3539 77.8294 94.658 67.5676L113.429 48.902L111.55 47.0228C110.536 45.9882 99.4721 34.9873 86.9721 22.5718L64.2737 -4.82605e-07L60.6419 3.77956L57.0102 7.53801L75 25.3378C84.9029 35.114 93.0321 43.201 93.0743 43.2855C93.1166 43.3911 72.2551 43.4755 46.5794 43.4755L6.85358e-06 43.4755L6.37364e-06 48.9654L5.8937e-06 54.4552L46.6005 54.4552L93.2221 54.4552L80.4476 67.0608C73.4164 73.9865 65.2872 82.0524 62.3522 84.9451L57.0313 90.2449L60.663 94.0034L64.2948 97.7618L70.1014 91.9975Z" fill="#969696"/>
</svg>
