<svg width="150" height="150" viewBox="0 0 150 150" fill="none" xmlns="http://www.w3.org/2000/svg">
<path d="M114.668 95.903C114.668 91.394 114.728 75.8066 114.758 61.2643L114.833 34.7926L112.175 34.7926C110.727 34.7777 95.1245 34.8225 77.5065 34.8822L45.4956 34.9718L45.6001 40.2124L45.6897 45.438L70.9968 45.3037C84.912 45.2141 96.3786 45.1842 96.4682 45.2141C96.5727 45.2589 81.8811 60.0699 63.7257 78.2253L30.7891 111.162L34.671 115.044L38.5529 118.926L71.5045 85.9742L104.471 53.0078L104.351 70.9542C104.277 80.8232 104.232 92.2749 104.202 96.3957L104.187 103.906L109.413 103.995L114.639 104.085L114.668 95.903Z" fill="#969696"/>
</svg>
