<svg width="232" height="63" viewBox="0 0 232 63" fill="none" xmlns="http://www.w3.org/2000/svg">
<path d="M100.383 3.26651C99.4279 4.25704 96.9162 9.28046 96.9162 10.1649C96.9162 10.4479 96.7039 11.0846 96.4209 11.6507C96.1379 12.1813 95.7488 13.0303 95.5365 13.5256C95.3242 14.0209 95.0059 14.6576 94.829 14.9406C94.1922 15.9312 93.1309 18.6198 92.4942 20.7777C92.1758 21.9451 91.3621 23.9969 90.7253 25.3766C88.9919 29.0911 88.8504 29.4802 88.4259 32.6641C88.2136 34.2914 87.7891 36.1309 87.5061 36.7677C87.2231 37.3691 87.0109 38.1474 87.0109 38.5365C87.0109 38.8903 86.6925 39.7039 86.3033 40.3407C85.9142 40.9775 85.5958 41.7204 85.5958 42.0034C85.5958 42.2864 85.4543 42.534 85.242 42.534C85.0652 42.534 84.4991 43.3831 84.0039 44.4443C83.2256 46.107 83.1195 46.7792 83.1902 49.1494C83.2964 51.838 83.3317 51.9087 84.1808 51.9087C84.9237 51.9087 85.2774 51.4842 86.4448 49.2555C87.683 46.8853 87.8599 46.2485 88.0721 43.0647C88.249 40.9421 88.5674 39.1025 88.9212 38.4658C89.2395 37.8644 89.4872 37.2276 89.4872 36.98C89.4872 36.5555 89.9824 35.3173 91.1145 32.8056C91.9635 30.8953 93.0248 27.5345 93.0248 26.7209C93.0248 26.2964 93.3078 25.2351 93.6969 24.4214C95.1474 21.1315 95.5011 20.2117 95.5011 19.7872C95.5011 19.5395 95.8195 18.6551 96.2086 17.8415C96.5978 17.0632 96.9162 16.2496 96.9162 16.0373C96.9162 15.8604 97.4822 14.7284 98.1543 13.5256C98.8265 12.3228 99.3925 11.2261 99.3925 11.0493C99.3925 9.88185 102.541 7.68853 105.017 7.12251C109.298 6.16735 114.427 13.4902 113.401 19.1504C113.118 20.7069 112.765 21.3437 111.456 22.688C110.571 23.6078 109.369 24.5983 108.767 24.8813C106.998 25.8011 104.239 27.393 103.284 28.0298C102.789 28.3482 102.081 28.7373 101.692 28.8435C101.303 28.9496 99.8878 29.4449 98.5081 29.9755C97.1638 30.4708 95.7134 31.0014 95.3242 31.1075C94.9351 31.249 94.4752 31.4613 94.263 31.6382C94.0861 31.7797 93.4847 32.2396 92.954 32.6287C91.7866 33.5131 91.256 35.6711 91.7159 37.9351C91.9989 39.4917 92.1758 39.9516 93.6969 43.2769C94.1215 44.1613 94.4398 45.1519 94.4398 45.4349C94.4398 45.7179 94.8997 46.673 95.4657 47.5574C96.1379 48.6187 96.3855 49.3262 96.1733 49.6446C95.5719 50.5644 95.8195 53.8898 96.5624 55.0572C97.3407 56.3307 98.6496 57.1798 99.5694 56.9675C101.126 56.6845 102.081 52.7224 101.091 50.9182C100.489 49.9276 99.4633 49.114 98.3312 48.9017C97.5883 48.7249 97.4468 48.5126 97.5176 47.5928C97.5883 46.9914 97.1638 45.3641 96.5624 43.9845C95.395 41.2959 95.2535 39.5624 96.0318 38.5011C96.3148 38.112 96.81 36.9092 97.1284 35.8479C97.4114 34.7513 97.8713 33.5839 98.119 33.2655C98.6142 32.5933 100.914 31.6736 103.107 31.2137C107.671 30.2939 111.633 27.8883 113.012 25.1643C113.366 24.4922 113.826 23.7139 114.038 23.4309C115.241 21.9805 115.666 17.5938 114.923 14.7991C112.659 6.37961 103.956 -0.518736 100.383 3.26651Z" fill="black"/>
<path d="M150.335 5.46005C149.945 6.09682 149.627 6.76897 149.627 6.98122C149.627 7.1581 149.132 8.25476 148.53 9.42218C147.328 11.6862 145.24 17.9125 144.851 20.318C144.745 21.1671 144.321 22.6175 143.967 23.608C142.941 26.4027 142.516 28.6668 142.34 32.0983C142.057 36.8741 141.632 38.3952 140.429 39.1381C139.863 39.4565 139.12 40.2702 138.802 40.9423C138.271 42.1097 136.396 43.5955 135.477 43.5955C134.486 43.5955 132.54 42.3574 131.762 41.2253C131.055 40.164 130.984 39.8103 131.302 38.8551C132.187 36.2373 134.663 35.2821 136.432 36.9448L137.245 37.6877L138.484 36.4849C139.156 35.8128 139.722 34.9991 139.722 34.6807C139.722 33.7963 138.696 32.6997 137.281 32.0275C136.255 31.5323 135.866 31.4969 134.274 31.9214C128.614 33.3364 124.262 40.6947 125.996 45.895L126.456 47.31L128.791 47.3454C130.418 47.3808 131.408 47.593 132.116 48.0529C132.859 48.5482 133.814 48.7251 135.618 48.7604C138.413 48.7604 138.696 49.0081 139.722 52.0504C140.146 53.3593 140.429 53.7131 141.137 53.7839C142.693 53.9607 143.295 52.3688 143.613 46.9209C143.79 44.3031 144.038 42.0036 144.144 41.8267C144.285 41.6145 144.533 39.8103 144.674 37.8292C144.851 35.8482 145.134 33.3364 145.311 32.2752C145.488 31.2139 145.842 28.7376 146.089 26.7919C146.762 21.0609 147.151 19.5751 149.132 15.5422C150.653 12.4645 151.078 11.1556 151.396 8.89153C151.573 7.33498 151.82 5.91994 151.927 5.74306C152.174 5.35392 151.75 4.32801 151.361 4.32801C151.184 4.32801 150.724 4.85865 150.335 5.46005Z" fill="black"/>
<path d="M114.958 30.6141C113.26 31.4277 110.713 33.6918 110.713 34.364C110.713 34.5762 110.5 34.7531 110.288 34.7531C110.04 34.7531 109.439 35.5668 108.944 36.5573C108.165 38.1492 108.059 38.8214 108.095 42.0052C108.095 45.4013 108.165 45.7551 109.05 46.8871C110.323 48.5852 111.703 49.0804 113.684 48.5852C116.019 48.0192 117.823 48.0899 119.309 48.9036C120.972 49.788 121.608 49.788 122.422 48.8682C123.519 47.5946 123.625 45.9673 122.74 43.208C122.033 41.0854 121.998 40.6609 122.422 40.3779C122.847 40.1303 122.811 40.0595 122.351 40.0595C121.538 40.0595 120.83 36.3096 121.149 33.5857C121.538 30.4726 121.042 29.8004 118.531 29.8358C117.257 29.8358 115.984 30.1188 114.958 30.6141ZM113.755 38.7152C114.71 40.8024 114.71 45.3659 113.755 46.3918C112.8 47.4531 111.172 47.2409 110.217 45.9673C109.156 44.5169 109.191 40.6963 110.288 38.9275C111.632 36.7342 112.835 36.6634 113.755 38.7152Z" fill="black"/>
<path d="M6.156 46.036V44.848H9.936V22.672H8.316C6.624 22.672 5.76 23.032 4.932 23.716C3.384 24.976 2.628 27.496 2.628 31.492H1.44V21.484H9L11.628 21.52L14.256 21.484H21.816V31.492H20.628C20.628 27.496 19.872 24.976 18.324 23.716C17.496 23.032 16.632 22.672 14.94 22.672H13.32V44.848H17.1V46.036L14.256 46H11.628L9 46.036H6.156ZM23.8854 46.036V44.848H27.3414V22.672H23.8854V21.484H26.4054L29.0334 21.52L31.6614 21.484H34.0734V22.672H30.7254V33.04H40.8054V22.672H37.4574V21.484H40.0494L42.4974 21.52L45.1254 21.484H47.6454V22.672H44.1894V44.848H47.6454V46.036H45.1254L42.4974 46L39.8694 46.036H37.4574V44.848H40.8054V34.228H30.7254V44.848H34.0734V46.036H31.4814L29.0334 46L26.4054 46.036H23.8854ZM49.2247 46.036V44.848H52.6807V22.672H49.2247V21.484H51.7447L54.3727 21.52L57.0007 21.484H69.8527V31.492H68.6647C68.6647 27.496 67.8727 24.976 66.3247 23.716C65.4967 23.032 64.7767 22.672 62.3647 22.672H56.0647V33.04H58.5487C59.7007 33.04 60.4927 32.968 60.9967 32.644C61.5727 32.284 62.5087 31.204 62.5087 28.504V27.568H63.6967V39.664H62.5087V38.728C62.5087 36.028 61.5727 34.984 60.9967 34.624C60.4927 34.3 59.7007 34.228 58.5487 34.228H56.0647V44.848H62.5087C64.4887 44.848 65.9647 44.776 67.0447 43.876C68.0527 43.048 69.6367 40.852 69.6367 36.028H70.8247V46.036H57.0007L54.3727 46L51.7447 46.036H49.2247Z" fill="black"/>
<path d="M162.222 45.786V44.598H165.678V22.422H162.222V21.234H164.742L167.37 21.27L169.998 21.234H173.022V22.422H169.062V44.598H173.238C175.218 44.598 176.694 44.526 177.774 43.626C178.782 42.798 180.366 40.566 180.366 35.742H181.554V45.786H169.998L167.37 45.75L164.742 45.786H162.222ZM182.933 45.786V44.598H186.065L194.057 20.982H194.885L203.273 44.598H205.721V45.786H204.173L201.761 45.75L199.025 45.786H196.253V44.598H199.673L197.153 37.47H189.737L187.325 44.598H190.745V45.786H182.933ZM190.133 36.282H196.721L193.373 26.778H193.337L190.133 36.282ZM206.818 45.786V44.598H210.274V22.422H206.818V21.234H209.338L211.966 21.27L214.594 21.234H216.862C220.642 21.234 221.29 21.306 222.91 21.846C225.358 22.674 227.338 24.87 227.338 27.174C227.338 29.838 225.214 32.034 222.226 32.79V32.934C225.97 33.582 228.85 35.814 228.85 39.126C228.85 40.998 227.734 42.798 226.042 44.022C223.774 45.678 221.146 45.786 217.33 45.786H214.594L211.966 45.75L209.338 45.786H206.818ZM213.658 44.598H217.33C219.994 44.598 221.002 44.382 221.722 44.13C223.234 43.59 224.818 42.402 224.818 39.594V38.622C224.818 35.958 223.738 34.986 222.694 34.374C221.542 33.69 219.958 33.51 216.826 33.51H213.658V44.598ZM213.658 32.322H216.826C218.77 32.322 220.354 32.358 221.47 31.71C222.622 31.026 223.378 29.586 223.378 27.822V26.634C223.378 25.014 222.658 23.826 221.65 23.178C220.57 22.494 219.742 22.422 216.826 22.422H213.658V32.322Z" fill="black"/>
</svg>
